<svg width="128" height="128" viewBox="0 0 128 128" fill="none" xmlns="http://www.w3.org/2000/svg">
<path d="M10.5114 54.023C10.5114 50.3837 11.4301 47.6983 13.2674 45.967C15.1401 44.2357 18.0551 43.37 22.0124 43.37H28.0544V50.313H21.1644C20.3164 50.313 19.6274 50.5957 19.0974 51.161C18.6027 51.691 18.3554 52.433 18.3554 53.387V81H10.5114V54.023ZM3.72741 55.719H27.5774V62.662H3.72741V55.719ZM53.8977 52.91V81H46.0537V52.91H53.8977ZM52.2547 52.91V59.853H36.7787V52.91H52.2547ZM61.6357 74.057V81H36.7787V74.057H61.6357ZM53.7917 43.37V49.73H46.0537V43.37H53.7917ZM85.677 52.91V81H77.833V52.91H85.677ZM84.034 52.91V59.853H68.558V52.91H84.034ZM93.415 74.057V81H68.558V74.057H93.415ZM85.571 43.37V49.73H77.833V43.37H85.571ZM111.679 81.636C109.065 81.636 106.715 81.0177 104.63 79.781C102.546 78.5443 100.903 76.813 99.7013 74.587C98.5353 72.361 97.9523 69.817 97.9523 66.955C97.9523 64.093 98.5353 61.549 99.7013 59.323C100.903 57.097 102.546 55.3657 104.63 54.129C106.715 52.8923 109.065 52.274 111.679 52.274C114.294 52.274 116.644 52.8923 118.728 54.129C120.813 55.3657 122.438 57.097 123.604 59.323C124.806 61.549 125.406 64.093 125.406 66.955C125.406 69.817 124.806 72.361 123.604 74.587C122.438 76.813 120.813 78.5443 118.728 79.781C116.644 81.0177 114.294 81.636 111.679 81.636ZM111.679 74.852C113.34 74.852 114.647 74.1453 115.601 72.732C116.591 71.3187 117.085 69.393 117.085 66.955C117.085 64.517 116.591 62.5913 115.601 61.178C114.647 59.7647 113.34 59.058 111.679 59.058C110.019 59.058 108.694 59.7647 107.704 61.178C106.75 62.5913 106.273 64.517 106.273 66.955C106.273 69.393 106.75 71.3187 107.704 72.732C108.694 74.1453 110.019 74.852 111.679 74.852Z" fill="#C8102E"/>
</svg>
